<svg viewBox="0 0 1200 750" fill="none" xmlns="http://www.w3.org/2000/svg" width="1920" height="1200">
  <defs>
    <filter id="shadowV4" x="-5%" y="-5%" width="110%" height="110%">
      <feDropShadow dx="0" dy="12" stdDeviation="16" flood-color="#000000" flood-opacity="0.15"/>
    </filter>
  </defs>

  <!-- Canvas Background -->
  <rect width="1200" height="750" fill="#F1F5F9" />

  <!-- Grid Pattern Overlay -->
  <path d="M0 50 H1200 M0 100 H1200 M0 150 H1200 M0 200 H1200 M0 250 H1200 M0 300 H1200 M0 350 H1200 M0 400 H1200 M0 450 H1200 M0 500 H1200 M0 550 H1200 M0 600 H1200 M0 650 H1200" stroke="#E2E8F0" stroke-width="1" />
  <path d="M100 0 V750 M200 0 V750 M300 0 V750 M400 0 V750 M500 0 V750 M600 0 V750 M700 0 V750 M800 0 V750 M900 0 V750 M1000 0 V750 M1100 0 V750" stroke="#E2E8F0" stroke-width="1" />

  <!-- Desktop Browser Window Frame -->
  <rect x="80" y="60" width="1040" height="620" rx="10" fill="#FFFFFF" filter="url(#shadowV4)" stroke="#CBD5E1" stroke-width="1.5" />

  <!-- OS Browser Header Bar -->
  <path d="M80 70 C80 64.48 84.48 60 90 60 H1110 C1115.52 60 1120 64.48 1120 70 V100 H80 V70 Z" fill="#E2E8F0" />
  <line x1="80" y1="100" x2="1120" y2="100" stroke="#CBD5E1" stroke-width="1" />
  
  <!-- macOS Controls -->
  <circle cx="105" cy="80" r="5.5" fill="#EF4444" />
  <circle cx="123" cy="80" r="5.5" fill="#F59E0B" />
  <circle cx="141" cy="80" r="5.5" fill="#10B981" />

  <!-- URL Address Bar -->
  <rect x="190" y="70" width="820" height="20" rx="4" fill="#FFFFFF" stroke="#CBD5E1" stroke-width="1" />
  <text x="202" y="84" font-family="'Inter', sans-serif" font-size="11" fill="#64748B">localhost:3000/v0.4-rule-profiles</text>

  <!-- App Header -->
  <rect x="80" y="100" width="1040" height="70" fill="#F8FAFC" />
  <line x1="80" y1="170" x2="1120" y2="170" stroke="#E2E8F0" stroke-width="1.2" />

  <text x="110" y="142" font-family="'Inter', sans-serif" font-size="20" font-weight="800" fill="#0F172A">MediaReporter v0.4</text>
  <text x="330" y="140" font-family="'Inter', sans-serif" font-size="12" fill="#64748B">Introducing early draft profiles, interactive report columns check &amp; auto-matching rules</text>

  <!-- Action buttons -->
  <rect x="800" y="118" width="130" height="34" rx="4" fill="none" stroke="#64748B" stroke-width="1.2" />
  <text x="824" y="139" font-family="'Inter', sans-serif" font-size="12" font-weight="600" fill="#64748B">Reset Prefs</text>

  <rect x="945" y="118" width="135" height="34" rx="4" fill="#2563EB" />
  <text x="965" y="139" font-family="'Inter', sans-serif" font-size="12" font-weight="700" fill="#FFFFFF">📥 Export Excel</text>

  <!-- Side-by-Side: Rule Customizer on left, File compliance preview on right -->
  <!-- Left Side: Interactive Rule Builder Panel -->
  <rect x="110" y="190" width="310" height="380" rx="6" fill="#F8FAFC" stroke="#E2E8F0" />
  <text x="130" y="218" font-family="'Inter', sans-serif" font-size="11" font-weight="800" fill="#334155" letter-spacing="0.5">EXPORT COLUMN TOGGLES</text>
  
  <!-- Checkboxes for column selectors -->
  <!-- Row 1 -->
  <rect x="130" y="235" width="12" height="12" rx="2" stroke="#2563EB" stroke-width="1.5" fill="#FFFFFF" />
  <path d="M132 239 L135 242 L140 237" stroke="#2563EB" stroke-width="1.5" fill="none" />
  <text x="150" y="246" font-family="'Inter', sans-serif" font-size="11" font-weight="600" fill="#0F172A">Include File Path</text>

  <!-- Row 2 -->
  <rect x="130" y="260" width="12" height="12" rx="2" stroke="#2563EB" stroke-width="1.5" fill="#FFFFFF" />
  <path d="M132 264 L135 267 L140 262" stroke="#2563EB" stroke-width="1.5" fill="none" />
  <text x="150" y="271" font-family="'Inter', sans-serif" font-size="11" font-weight="600" fill="#0F172A">Include Audio Codec</text>

  <!-- Row 3 -->
  <rect x="130" y="285" width="12" height="12" rx="2" stroke="#CBD5E1" stroke-width="1.5" fill="#FFFFFF" />
  <text x="150" y="296" font-family="'Inter', sans-serif" font-size="11" fill="#64748B">Include Bitrate Info (Draft)</text>

  <rect x="130" y="310" width="12" height="12" rx="2" stroke="#2563EB" stroke-width="1.5" fill="#FFFFFF" />
  <path d="M132 314 L135 317 L140 312" stroke="#2563EB" stroke-width="1.5" fill="none" />
  <text x="150" y="321" font-family="'Inter', sans-serif" font-size="11" font-weight="600" fill="#0F172A">Include Remediation Action</text>

  <line x1="130" y1="340" x2="390" y2="340" stroke="#E2E8F0" stroke-width="1" />

  <!-- Active Media Compliance ruleset selection -->
  <text x="130" y="365" font-family="'Inter', sans-serif" font-size="11" font-weight="800" fill="#334155" letter-spacing="0.5">COMPLIANCE CRITERIA</text>
  
  <rect x="130" y="380" width="270" height="30" rx="4" fill="#FFFFFF" stroke="#CBD5E1" />
  <text x="142" y="399" font-family="'Inter', sans-serif" font-size="11" fill="#0F172A">Rules profile: Direct Stream Compatibility</text>
  <path d="M380 392 L384 397 L388 392" stroke="#64748B" stroke-width="1.5" fill="none" />

  <!-- Rule details description info -->
  <text x="130" y="430" font-family="'Inter', sans-serif" font-size="10" fill="#64748B">Accept: HEVC / h264 / aac / ac3</text>
  <text x="130" y="445" font-family="'Inter', sans-serif" font-size="10" fill="#EF4444">Alert: avi / wmv / flac / dts-ma</text>

  <rect x="130" y="475" width="270" height="35" rx="4" fill="#F1F5F9" stroke="#E2E8F0" />
  <text x="142" y="496" font-family="'Inter', sans-serif" font-size="11" font-weight="600" fill="#2563EB">💡 14 files compliant of 18</text>

  <!-- Right Side: Unified Items list dashboard preview -->
  <rect x="440" y="190" width="640" height="380" rx="6" fill="#FFFFFF" stroke="#E2E8F0" />
  
  <!-- Ribbon navigation -->
  <rect x="440" y="190" width="640" height="36" fill="#F8FAFC" />
  <line x1="440" y1="226" x2="1080" y2="226" stroke="#E2E8F0" />

  <text x="460" y="213" font-family="'Inter', sans-serif" font-size="11" font-weight="800" fill="#2563EB">Movies (12)</text>
  <text x="560" y="213" font-family="'Inter', sans-serif" font-size="11" font-weight="600" fill="#64748B">TV Shows (6)</text>
  
  <!-- Row 1 -->
  <text x="460" y="255" font-family="'Inter', sans-serif" font-size="12" font-weight="700" fill="#0F172A">Inception.mkv</text>
  <text x="460" y="268" font-family="'Inter', sans-serif" font-size="10" fill="#64748B">Path: /volume1/movies/Inception.mkv</text>
  <text x="750" y="260" font-family="'Inter', sans-serif" font-size="11" fill="#334155">h264 / AAC</text>
  <rect x="960" y="246" width="100" height="20" rx="4" fill="#D1FAE5" />
  <text x="982" y="259" font-family="'Inter', sans-serif" font-size="9" font-weight="700" fill="#065F46">DIRECT PLAY</text>

  <line x1="440" y1="285" x2="1080" y2="285" stroke="#E2E8F0" stroke-width="0.8" />

  <!-- Row 2 -->
  <text x="460" y="310" font-family="'Inter', sans-serif" font-size="12" font-weight="700" fill="#0F172A">Toy_Story_3_Full.avi</text>
  <text x="460" y="323" font-family="'Inter', sans-serif" font-size="10" fill="#64748B">Path: /volume1/movies/Toy_Story.avi</text>
  <text x="750" y="315" font-family="'Inter', sans-serif" font-size="11" fill="#EF4444">mpeg4 (avi)</text>
  <rect x="960" y="301" width="100" height="20" rx="4" fill="#FEE2E2" />
  <text x="982" y="314" font-family="'Inter', sans-serif" font-size="9" font-weight="700" fill="#991B1B">TRANSCODE</text>

  <line x1="440" y1="340" x2="1080" y2="340" stroke="#E2E8F0" stroke-width="0.8" />

  <!-- Row 3 -->
  <text x="460" y="365" font-family="'Inter', sans-serif" font-size="12" font-weight="700" fill="#0F172A">Interestellar_1080p.mkv</text>
  <text x="460" y="378" font-family="'Inter', sans-serif" font-size="10" fill="#64748B">Path: /volume1/movies/Interstellar.mkv</text>
  <text x="750" y="370" font-family="'Inter', sans-serif" font-size="11" fill="#D97706">h264 (DTS Audio)</text>
  <rect x="960" y="356" width="100" height="20" rx="4" fill="#FEF3C7" />
  <text x="980" y="369" font-family="'Inter', sans-serif" font-size="9" font-weight="700" fill="#92400E">DTS TRANSCODE</text>

  <line x1="440" y1="395" x2="1080" y2="395" stroke="#E2E8F0" stroke-width="0.8" />

  <!-- Action remediation hint underneath -->
  <rect x="460" y="420" width="600" height="110" rx="6" fill="#EFF6FF" stroke="#BFDBFE" />
  <text x="475" y="442" font-family="'Inter', sans-serif" font-size="11" font-weight="800" fill="#1E40AF">REMEDIATION LOGSUGGESTION FOR DRAFT REPORTS</text>
  <text x="475" y="464" font-family="'Inter', sans-serif" font-size="12" font-weight="600" fill="#0F172A">Unfriendly containers (avi) cause severe NAS CPU transcoding spikes.</text>
  <text x="475" y="482" font-family="'Inter', sans-serif" font-size="11" fill="#1E40AF">Excel reports will output automated FFmpeg command strings for rapid conversion.</text>

  <!-- Browser Window Footer bar -->
  <path d="M80 630 V670 C80 675.52 84.48 680 90 680 H1110 C1115.52 680 1120 675.52 1120 670 V630 Z" fill="#F1F5F9" />
  <line x1="80" y1="630" x2="1120" y2="630" stroke="#CBD5E1" stroke-width="1.2" />
  <text x="110" y="656" font-family="'Inter', sans-serif" font-size="11" fill="#94A3B8">PlexAuditor local db sync active | v0.4.x stable profile setup</text>
</svg>
